<svg width="139" height="199" viewBox="0 0 139 199" fill="none" xmlns="http://www.w3.org/2000/svg">
<g id="robot-1">
<path id="left-arm" d="M36.7722 144.225C17.5831 120.062 33.5125 99.0265 43.8758 91.529C30.3424 84.6445 26.9113 96.1075 26.8875 102.7C16.1557 123.365 25.6806 141.071 31.7845 147.341C31.3078 155.035 36.82 155.002 39.6357 154.024C44.5167 149.262 39.7604 145.507 36.7722 144.225Z" fill="black" stroke="black"/>
<path id="right-arm" d="M101.087 143.331C119.852 118.837 103.558 98.0823 93.065 90.7668C106.476 83.6472 110.107 95.0486 110.246 101.639C121.337 122.114 112.122 139.983 106.129 146.359C106.739 154.044 101.228 154.107 98.3952 153.178C93.4319 148.503 98.1218 144.665 101.087 143.331Z" fill="black" stroke="black"/>
<path id="body" d="M62.5148 85.6806V70.7455H74.0775V85.6806C120.81 98.6886 105.393 141.567 85.1584 150.239V191.19C77.8354 203.138 71.1869 196.168 68.778 191.19V154.575H66.3691V191.19C58.6606 203.524 52.2369 196.329 49.9886 191.19V150.239C10.4828 124.705 42.2802 88.0895 62.5148 85.6806Z" fill="black" stroke="black"/>
<path id="top-of-head" d="M66.8509 22.5677C62.2258 22.5677 59.1424 25.7796 58.1789 27.3855H79.3771C77.0646 22.7604 71.3475 22.2465 68.778 22.5677V8.59614C72.1504 5.70546 71.6686 3.77836 69.7415 1.85125C68.1998 0.309557 66.5297 1.20888 65.8873 1.85125C62.8039 5.32005 65.2449 7.79318 66.8509 8.59614V22.5677Z" fill="black" stroke="black"/>
<rect id="head" x="26.8633" y="27.3855" width="84.7929" height="43.36" rx="2" fill="black"/>
<path id="left-ear" d="M22.0455 61.11V36.5393C14.3371 36.5393 5.66506 38.9482 3.25617 42.3206C1.81083 44.3441 -0.116273 46.6566 1.81084 52.438C3.73795 58.2193 14.8189 61.11 22.0455 61.11Z" fill="black" stroke="black"/>
<path id="right-ear" d="M116.627 61.11V36.5393C124.335 36.5393 133.007 38.9482 135.416 42.3206C136.861 44.3441 138.789 46.6566 136.861 52.438C134.934 58.2193 123.853 61.11 116.627 61.11Z" fill="black" stroke="black"/>
<g id="face">
<rect id="left-eyebrow" x="42.2802" y="34.1304" width="8.672" height="2.89067" rx="1.44533" fill="#D9D9D9"/>
<rect id="right-eyebrow" x="89.4944" y="34.1304" width="8.672" height="2.89067" rx="1.44533" fill="#D9D9D9"/>
<path id="left-eye" d="M53.6971 50.029C53.6971 54.1091 50.5768 57.1099 47.098 57.1099C43.6191 57.1099 40.4988 54.1091 40.4988 50.029C40.4988 45.9489 43.6191 42.9482 47.098 42.9482C50.5768 42.9482 53.6971 45.9489 53.6971 50.029Z" stroke="white" stroke-width="8"/>
<path id="right-eye" d="M99.9478 50.029C99.9478 54.1091 96.8275 57.1099 93.3487 57.1099C89.8698 57.1099 86.7495 54.1091 86.7495 50.029C86.7495 45.9489 89.8698 42.9482 93.3487 42.9482C96.8275 42.9482 99.9478 45.9489 99.9478 50.029Z" stroke="white" stroke-width="8"/>
<rect id="mouth" x="56.7335" y="62.0735" width="26.9796" height="3.85422" rx="1" fill="white"/>
<g id="teeths">
<path id="Vector 3" d="M60.106 62.0735V65.9277" stroke="black"/>
<path id="Vector 4" d="M62.9966 62.0735V65.9277" stroke="black"/>
<path id="Vector 10" d="M80.3406 62.0735V65.9277" stroke="black"/>
<path id="Vector 9" d="M77.45 62.0735V65.9277" stroke="black"/>
<path id="Vector 8" d="M74.5593 62.0735V65.9277" stroke="black"/>
<path id="Vector 7" d="M71.6686 62.0735V65.9277" stroke="black"/>
<path id="Vector 6" d="M68.778 62.0735V65.9277" stroke="black"/>
<path id="Vector 5" d="M65.8873 62.0735V65.9277" stroke="black"/>
</g>
</g>
<g id="on-body">
<path id="Vector 11" d="M38.426 127.595C47.5797 132.253 72.1504 138.773 97.2029 127.595C88.0491 134.661 63.4784 144.554 38.426 127.595Z" fill="white"/>
<g id="Rectangle 13">
<mask id="path-22-inside-1_25_33" fill="white">
<rect x="55.77" y="100.616" width="26.016" height="26.9796" rx="6"/>
</mask>
<rect x="55.77" y="100.616" width="26.016" height="26.9796" rx="6" stroke="white" stroke-width="14" mask="url(#path-22-inside-1_25_33)"/>
</g>
<circle id="Ellipse 7" cx="50.9522" cy="100.616" r="1.92711" fill="white"/>
</g>
</g>
</svg>
