<svg width="172" height="198" viewBox="0 0 172 198" fill="none" xmlns="http://www.w3.org/2000/svg">
<g id="robot-3">
<path id="body" d="M50.6285 63.265L53.916 61.0733C54.3986 60.7516 54.9641 60.5767 55.544 60.5697L117.973 59.8175C119.537 59.7987 120.816 61.0616 120.816 62.626C120.816 62.8556 120.833 63.0924 120.959 63.2844C121.674 64.3735 124.882 65.9422 133.569 65.3631C142.291 64.7816 145.048 72.1086 145.467 76.8296C145.54 77.6502 145.864 78.4344 146.455 79.0076C151.823 84.2087 161.848 94.8185 165.454 102.03C169.28 109.682 167.579 121.692 166.251 126.741C164.391 135.774 160.193 154.321 158.28 156.234C156.367 158.147 159.077 162.876 160.671 165.002C170.677 176.773 171.945 184.017 171.246 186.735C171.143 187.136 170.872 187.461 170.542 187.711C168.894 188.959 166.471 190.205 167.048 187.321C167.624 184.442 163.045 174.85 159.999 169.102C159.491 168.143 158.309 167.777 157.339 168.262C156.491 168.686 156.057 169.643 156.258 170.569C158.153 179.289 157.061 185.287 156.088 187.674C155.966 187.973 155.774 188.235 155.541 188.458C153.365 190.533 149.897 192.952 151.106 188.118C152.7 181.741 151.903 178.553 152.7 173.77C153.338 169.944 151.372 168.987 150.309 168.987C149.021 168.987 148.004 170.091 147.906 171.374C147.624 175.068 146.125 180.567 141.54 184.132C135.986 188.453 136.454 185.157 137.454 182.773C137.519 182.616 137.6 182.47 137.694 182.329C140.911 177.478 146.614 168.022 144.729 167.393C143.344 166.932 142.432 163.936 141.934 161.31C141.646 159.796 140.366 158.625 138.825 158.625H138.555C137.906 158.625 137.274 158.839 136.747 159.219C131.396 163.084 128.502 163.626 127.192 163.216C126.556 163.016 126.439 162.242 126.714 161.634C127.833 159.159 131.07 157.279 133.066 156.435C133.397 156.295 133.753 156.234 134.113 156.234H145.526C148.714 156.234 150.043 154.639 150.309 153.842L155.888 137.9C157.483 134.712 160.831 125.943 161.468 116.378C162.094 106.986 152.525 94.7754 147.399 89.5575C147.212 89.3672 147.003 89.2058 146.766 89.083C142.597 86.9197 141.54 90.3966 141.54 92.4648C141.473 119.919 137.987 134.272 136.105 138.395C136.011 138.6 135.934 138.809 135.879 139.027C130.022 162.451 108.807 179.361 97.6994 181.741C96.9023 182.007 92.8055 183.993 83.3514 182.538C72.989 180.944 59.1724 169.253 53.0613 162.611C48.81 158.094 39.351 145.871 35.5248 133.117C34.1963 127.538 31.6987 112.393 32.3364 96.4504C32.0707 93.5745 30.4233 89.0701 25.9595 94.059L12.5676 109.027C12.4618 109.145 12.3644 109.272 12.2799 109.407C6.81633 118.094 8.36352 127.931 9.91481 132.056C9.98203 132.235 10.0693 132.401 10.1726 132.562L24.1259 154.267C24.2846 154.514 24.4035 154.784 24.4956 155.063C25.7971 159.003 28.8737 160.599 30.5001 160.968C30.6612 161.005 30.8251 161.015 30.9903 161.019C33.6912 161.082 39.8666 162.096 42.6988 162.611C56.4069 166.972 55.5029 171.182 52.4799 169.885C52.3359 169.823 52.2011 169.739 52.0719 169.65C48.8975 167.472 44.2985 166.448 40.7678 166.035C38.8875 165.815 37.3445 167.592 36.8349 169.415C36.4044 170.955 35.6774 172.486 34.9824 173.704C34.3906 174.742 34.3344 176.032 34.9381 177.063C41.0113 187.43 41.7677 191.176 41.2808 191.956C41.1979 192.089 41.0272 192.121 40.8707 192.128C37.3821 192.284 32.8497 183.312 30.5175 177.609C30.1619 176.74 29.3243 176.161 28.3849 176.161C27.0733 176.161 26.0375 177.283 26.1214 178.592C26.7715 188.741 26.747 193.635 26.5135 195.703C26.401 196.7 25.2608 196.955 24.504 196.297C22.9487 194.944 22.1827 191.591 21.974 189.712L21.4319 178.871C21.3176 176.585 19.044 175.649 17.9618 177.667C14.2571 184.573 12.5789 196.778 9.6191 195.536C9.33449 195.417 9.1258 195.167 8.9984 194.886C7.70785 192.038 8.50295 184.013 10.0173 181.741C12.1429 178.553 16.8725 171.219 18.7855 167.393C20.6986 163.567 19.5826 160.485 18.7855 159.422L4.43754 137.103C1.88678 133.277 1.24907 127.006 1.24905 124.349C0.0232834 115.156 3.60805 109.644 5.77588 107.814C5.94314 107.673 6.10358 107.526 6.24603 107.36L24.5131 86.0483C24.9346 85.5565 25.1851 84.9232 25.2359 84.2776C26.9908 61.9681 36.0863 63.6757 48.9621 63.7655C49.5543 63.7697 50.1357 63.5935 50.6285 63.265Z" fill="black" stroke="black"/>
<ellipse id="head" cx="86.5399" cy="32.6815" rx="64.5659" ry="32.6815" fill="black"/>
<g id="no-change">
<path id="Vector 15" d="M44.293 152.248C53.0612 146.403 69.271 128.712 77.7717 117.175C88.9312 102.03 105.671 106.016 118.424 119.567C124.004 126.74 135.164 136.306 136.758 137.103" stroke="white" stroke-width="2"/>
<path id="Vector 13" d="M129.584 72.537C131.178 77.3197 135.164 87.3632 138.352 89.2763C138.352 85.5565 136.598 77.0008 129.584 72.537Z" fill="white"/>
<path id="Vector 12" d="M36.3219 100.436C43.4959 97.7789 57.3656 89.2763 55.4525 76.5226C58.641 83.1652 59.2787 97.2474 36.3219 100.436Z" fill="white"/>
<path id="Vector 14" d="M37.1191 138.697L41.9017 136.306C51.4671 132.32 64.2208 121.958 70.5977 109.204C76.9746 96.4503 89.1969 91.6676 94.511 90.8705C99.2937 90.3391 110.613 91.9865 117.627 102.827C126.395 116.378 135.164 121.958 139.946 122.755" stroke="white" stroke-width="3"/>
<path id="eye-line" d="M21.974 34.2757V31.0873H72.989L77.7717 14.348L90.5255 31.0873H117.627H151.106V34.2757H133.569H88.1341L84.1486 27.8989L79.3659 21.522L76.1775 34.2757H21.974Z" fill="white"/>
<g id="eye">
<circle id="Ellipse 10" cx="102.482" cy="29.4931" r="16.7393" fill="white"/>
<circle id="Ellipse 8" cx="103.279" cy="28.696" r="3.18844" fill="black"/>
<circle id="Ellipse 9" cx="102.482" cy="29.4931" r="9.95665" stroke="black" stroke-width="4"/>
</g>
</g>
</g>
</svg>
