<svg width="138" height="199" viewBox="0 0 138 199" fill="none" xmlns="http://www.w3.org/2000/svg">
<path d="M112.94 37.4142H25.2667V48.5054H21.0415V42.1676L1.5 43.2239L3.08445 61.181H9.9504V70.1595H4.6689L7.30965 89.1729H13.1193L15.76 110.827C8.99972 121.813 16.4642 124.911 21.0415 125.087C34.7734 125.087 28.4356 109.771 22.626 109.771L21.0415 87.0603H26.323L24.2104 68.0469H17.3445V61.181H22.626V54.8432H25.2667L34.7734 126.672H51.6743V136.706H47.9772V180.015H51.6743V183.184C40.6887 182.339 35.8297 193.042 34.7734 198.5H65.4062C66.2512 190.895 61.181 186.881 58.5402 185.824V180.015H62.2373V136.706H58.5402V126.672H80.1944V136.706H76.4973V181.071H80.1944V185.824C77.2367 185.824 74.0326 194.275 72.8003 198.5H103.961C105.651 192.162 98.3275 185.648 94.4544 183.184H87.0603V181.071H91.2855V136.706H87.0603V126.672H101.849L112.94 52.2024H117.693L116.637 61.181H122.446L121.39 68.0469H116.637L112.94 87.0603H118.749L116.637 109.771C110.827 108.186 102.905 125.087 117.693 125.087C129.524 125.087 125.615 115.052 122.446 109.771L125.615 88.1166H130.897L134.066 70.1595H128.784V61.181H135.65L137.235 43.2239L118.749 41.1113V44.2802H112.94V37.4142Z" fill="black" stroke="black"/>
<path d="M36.8861 17.8727H37.9424V28.4357H34.2453C28.33 24.633 31.7806 19.8092 34.2453 17.8727V6.25335C31.2877 3.71823 33.7172 2.02815 35.3016 1.5C39.5268 2.34504 38.1184 5.021 36.8861 6.25335V17.8727Z" fill="black" stroke="black"/>
<path d="M103.006 17.8727H101.95V28.4357H105.647C111.562 24.633 108.112 19.8092 105.647 17.8727V6.25335C108.605 3.71823 106.175 2.02815 104.591 1.5C100.365 2.34504 101.774 5.021 103.006 6.25335V17.8727Z" fill="black" stroke="black"/>
<path d="M103.433 24.0482C103.433 35.0428 98.0677 43.9557 69.6314 41.8602C42.2682 43.4318 35.8298 35.0428 35.8298 24.0482C35.8298 13.0536 50.9633 4.14075 69.6314 4.14075C88.2995 4.14075 103.433 13.0536 103.433 24.0482Z" fill="black"/>
<path d="M56.0121 21.0416C56.0121 24.321 53.7918 26.4357 51.6743 26.4357C49.5567 26.4357 47.3365 24.321 47.3365 21.0416C47.3365 17.7621 49.5567 15.6475 51.6743 15.6475C53.7918 15.6475 56.0121 17.7621 56.0121 21.0416Z" stroke="white" stroke-width="4"/>
<path d="M92.9826 21.0416C92.9826 24.321 90.7623 26.4357 88.6448 26.4357C86.5272 26.4357 84.307 24.321 84.307 21.0416C84.307 17.7621 86.5272 15.6475 88.6448 15.6475C90.7623 15.6475 92.9826 17.7621 92.9826 21.0416Z" stroke="white" stroke-width="4"/>
<path d="M35.7729 51.1795C35.2505 48.1255 37.603 45.3365 40.7014 45.3365H98.1097C101.182 45.3365 103.528 48.0815 103.049 51.1163L98.2897 81.2557C97.906 83.6859 95.8112 85.4759 93.3509 85.4759H45.8568C43.4206 85.4759 41.3391 83.7201 40.9284 81.3189L35.7729 51.1795Z" fill="white"/>
<path d="M41.3792 49.4491H96.4009C96.9949 49.4491 97.458 49.9638 97.3953 50.5545L94.3346 79.4124C94.2807 79.9211 93.8517 80.307 93.3402 80.307H45.3144C44.8143 80.307 44.3911 79.9376 44.3235 79.4421L40.3884 50.5842C40.3065 49.9838 40.7732 49.4491 41.3792 49.4491Z" stroke="black" stroke-width="4"/>
<rect x="42.1676" y="89.7011" width="54.9276" height="4.2252" fill="white"/>
<circle cx="45.3365" cy="100.264" r="3.1689" fill="white"/>
<rect x="51.6743" y="99.2078" width="3.1689" height="3.1689" fill="white"/>
</svg>
