<svg width="239" height="199" viewBox="0 0 239 199" fill="none" xmlns="http://www.w3.org/2000/svg">
<g id="robot-4">
<g id="left-eye">
<g id="Vector 17">
<path d="M41.6508 14.8516C44.6577 13.1334 69.3064 6.47601 83.7495 2.03543C85.4984 1.49772 87.3289 2.61931 87.5294 4.43799C89.3651 21.0923 83.7804 32.8914 80.8969 37.9375C77.8188 43.3242 66.2758 55.6367 51.6547 51.0195C41.9298 47.9485 37.737 44.1328 34.8307 38.5109L32.904 36.825C32.5827 36.5439 32.3213 36.1995 32.1635 35.8028C30.9431 32.7356 29.7322 26.7702 33.186 23.3164C34.7251 18.6992 36.2641 17.9297 41.6508 14.8516Z" fill="white"/>
<path d="M33.186 23.3164C34.7251 18.6992 36.2641 17.9297 41.6508 14.8516C44.6577 13.1334 69.3064 6.47601 83.7495 2.03543C85.4984 1.49772 87.3289 2.61931 87.5294 4.43799C89.3651 21.0923 83.7804 32.8914 80.8969 37.9375C77.8188 43.3242 66.2758 55.6367 51.6547 51.0195C40.2322 47.4124 36.4418 42.7779 33.4037 35.396C33.2584 35.043 33.186 34.6633 33.186 34.2816V23.3164ZM33.186 23.3164C29.7322 26.7702 30.9431 32.7356 32.1635 35.8028C32.3213 36.1995 32.5827 36.5439 32.904 36.825L38.5727 41.7852" stroke="black" stroke-width="2"/>
</g>
<path id="Vector 18" d="M53.091 13.3642C47.9581 15.9628 40.1117 22.3186 40.1117 28.7031C40.1117 36.3984 42.4203 40.2461 51.6547 44.0938C59.0422 47.1719 66.0193 46.4023 68.5844 45.6328C73.0566 43.6203 81.7782 37.0465 85.1654 25.6056L86.2836 20.2383C86.0467 22.1334 85.6638 23.9222 85.1654 25.6056L82.5882 37.9764C82.49 38.4476 82.2252 38.8676 81.8423 39.1593L66.6898 50.7041C66.4183 50.9109 66.0984 51.0449 65.7605 51.0931L56.0656 52.4781C55.6974 52.5307 55.3218 52.4796 54.9811 52.3305L43.609 47.3552C43.3331 47.2346 43.0881 47.0531 42.8921 46.8245L34.1968 36.68C34.0373 36.4939 33.9133 36.28 33.8311 36.0491L31.7237 30.1284C31.5785 29.7205 31.5696 29.2765 31.6983 28.8631L33.1003 24.361C33.1571 24.1786 33.2398 24.0052 33.3457 23.8462L37.4305 17.7191C37.6723 17.3564 38.0259 17.0827 38.4376 16.9395L52.5293 12.038C53.2533 11.7862 53.8185 12.6877 53.2766 13.2297C53.2217 13.2845 53.1602 13.3292 53.091 13.3642Z" fill="black" stroke="black"/>
<circle id="Ellipse 11" cx="61.6586" cy="26.3945" r="16.1602" fill="black"/>
<path id="Vector 16" d="M49.3461 23.3164C43.9593 26.3945 49.346 38.707 55.5023 38.707C51.6547 33.3203 50.1156 28.7031 49.3461 23.3164Z" fill="white"/>
</g>
<g id="right-eye">
<g id="Vector 17_2">
<path d="M140.264 14.8516C137.257 13.1334 112.608 6.47601 98.1653 2.03543C96.4164 1.49772 94.5858 2.61931 94.3854 4.43799C92.5496 21.0923 98.1343 32.8914 101.018 37.9375C104.096 43.3242 115.639 55.6367 130.26 51.0195C139.985 47.9485 144.178 44.1328 147.084 38.5109L149.011 36.825C149.332 36.5439 149.593 36.1995 149.751 35.8028C150.972 32.7356 152.183 26.7702 148.729 23.3164C147.19 18.6992 145.651 17.9297 140.264 14.8516Z" fill="white"/>
<path d="M148.729 23.3164C147.19 18.6992 145.651 17.9297 140.264 14.8516C137.257 13.1334 112.608 6.47601 98.1653 2.03543C96.4164 1.49772 94.5858 2.61931 94.3854 4.43799C92.5496 21.0923 98.1343 32.8914 101.018 37.9375C104.096 43.3242 115.639 55.6367 130.26 51.0195C141.683 47.4124 145.473 42.7779 148.511 35.396C148.656 35.043 148.729 34.6633 148.729 34.2816V23.3164ZM148.729 23.3164C152.183 26.7702 150.972 32.7356 149.751 35.8028C149.593 36.1995 149.332 36.5439 149.011 36.825L143.342 41.7852" stroke="black" stroke-width="2"/>
</g>
<path id="Vector 18_2" d="M128.824 13.3642C133.957 15.9628 141.803 22.3186 141.803 28.7031C141.803 36.3984 139.495 40.2461 130.26 44.0938C122.873 47.1719 115.896 46.4023 113.331 45.6328C108.858 43.6203 100.137 37.0465 96.7496 25.6056L95.6314 20.2383C95.8683 22.1334 96.2512 23.9222 96.7496 25.6056L99.3268 37.9764C99.425 38.4476 99.6898 38.8676 100.073 39.1593L115.225 50.7041C115.497 50.9109 115.817 51.0449 116.154 51.0931L125.849 52.4781C126.218 52.5307 126.593 52.4796 126.934 52.3305L138.306 47.3552C138.582 47.2346 138.827 47.0531 139.023 46.8245L147.742 36.6518C147.886 36.4841 148.001 36.2936 148.083 36.0883L150.244 30.646C150.41 30.2276 150.43 29.7654 150.301 29.3342L148.815 24.3726C148.758 24.1826 148.673 24.002 148.563 23.8369L144.484 17.7191C144.243 17.3564 143.889 17.0827 143.477 16.9395L129.386 12.038C128.662 11.7862 128.096 12.6877 128.638 13.2297C128.693 13.2845 128.755 13.3292 128.824 13.3642Z" fill="black" stroke="black"/>
<circle id="Ellipse 11_2" r="16.1602" transform="matrix(-1 0 0 1 120.256 26.3945)" fill="black"/>
<path id="Vector 16_2" d="M132.569 23.3164C137.955 26.3945 132.569 38.707 126.412 38.707C130.26 33.3203 131.799 28.7031 132.569 23.3164Z" fill="white"/>
</g>
<path id="body" d="M91.0357 13.3125H90.1124C89.214 13.3125 88.4258 13.9116 88.1854 14.7772L80.9699 40.753C80.9214 40.9273 80.8969 41.1073 80.8969 41.2882V59.0234C80.8969 60.128 80.0015 61.0234 78.8969 61.0234H37.4946C36.39 61.0234 35.4946 61.9189 35.4946 63.0234V158.293C35.4946 159.398 36.39 160.293 37.4946 160.293H38.8813C39.9858 160.293 40.8813 161.188 40.8813 162.293V171.451C40.8813 172.514 40.02 173.375 38.9575 173.375C37.8949 173.375 37.0336 174.236 37.0336 175.299V177.408C37.0336 178.225 37.5315 178.961 38.2908 179.265L39.6241 179.798C40.3834 180.102 40.8813 180.837 40.8813 181.655V184.817C40.8813 185.771 40.2084 186.592 39.2735 186.779L38.6414 186.905C37.7065 187.092 37.0336 187.913 37.0336 188.866V190.689C37.0336 191.752 37.8949 192.613 38.9575 192.613C40.02 192.613 40.8813 193.475 40.8813 194.537V196C40.8813 197.105 41.7767 198 42.8813 198H76.5883C77.6929 198 78.5883 197.105 78.5883 196V193.768C78.5883 193.13 79.1051 192.613 79.7426 192.613C80.3801 192.613 80.8969 192.096 80.8969 191.459V187.611C80.8969 186.974 80.3801 186.457 79.7426 186.457C79.1051 186.457 78.5883 185.94 78.5883 185.303V177.607C78.5883 176.97 79.1051 176.453 79.7426 176.453C80.3801 176.453 80.8969 175.936 80.8969 175.299V170.682C80.8969 170.044 80.3801 169.527 79.7426 169.527C79.1051 169.527 78.5883 169.011 78.5883 168.373V162.293C78.5883 161.188 79.4837 160.293 80.5883 160.293H107.37C108.474 160.293 109.37 161.188 109.37 162.293V170.297C109.37 171.147 108.68 171.836 107.83 171.836C106.98 171.836 106.291 172.525 106.291 173.375V180.301C106.291 181.151 106.98 181.84 107.83 181.84C108.68 181.84 109.37 182.529 109.37 183.379V185.688C109.37 186.538 108.68 187.227 107.83 187.227C106.98 187.227 106.291 187.916 106.291 188.766V193.383C106.291 194.233 106.98 194.922 107.83 194.922C108.68 194.922 109.37 195.611 109.37 196.461C109.37 197.311 110.059 198 110.909 198H144.768C145.618 198 146.307 197.311 146.307 196.461C146.307 195.611 146.996 194.922 147.846 194.922H148.231C149.293 194.922 150.155 194.061 150.155 192.998V188.866C150.155 187.913 149.482 187.092 148.547 186.905L147.915 186.779C146.98 186.592 146.307 185.771 146.307 184.817V180.762C146.307 179.657 147.202 178.762 148.307 178.762H148.924C150.029 178.762 150.924 177.866 150.924 176.762V173.836C150.924 172.731 150.029 171.836 148.924 171.836H148.307C147.202 171.836 146.307 170.941 146.307 169.836V162.293C146.307 161.188 147.202 160.293 148.307 160.293H148.924C150.029 160.293 150.924 159.398 150.924 158.293V63.0234C150.924 61.9189 150.029 61.0234 148.924 61.0234H104.444C103.339 61.0234 102.444 60.128 102.444 59.0234V41.3657C102.444 41.1341 102.404 40.9042 102.325 40.6864L92.9168 14.6332C92.6306 13.8407 91.8783 13.3125 91.0357 13.3125Z" fill="black" stroke="black"/>
<path id="left-arm" d="M3.94382 114.121L37.0336 64.8711L36.2821 92.6783C36.2704 93.1103 36.1211 93.5247 35.8522 93.863C30.8047 100.215 20.4481 112.837 16.2563 116.43C11.9469 120.123 11.8956 125.151 12.4086 127.203L19.2294 156.76C19.2985 157.059 19.4356 157.339 19.6302 157.576L31.8337 172.492C32.5658 173.387 32.389 174.714 31.4483 175.386L28.8786 177.221C28.2415 177.676 27.3786 177.648 26.7727 177.152L26.2312 176.709C24.8447 175.575 22.9218 177.216 23.8244 178.764C24.3043 179.586 23.9679 180.643 23.101 181.037L17.8808 183.41C16.9552 183.831 15.8612 183.492 15.3478 182.614C12.1101 177.079 7.02192 167.709 7.02192 164.91V154.369C7.02192 154.214 7.00519 154.066 6.96999 153.916C5.91322 149.408 3.45166 138.43 1.63522 128.742C-0.211652 118.892 2.40475 114.891 3.94382 114.121Z" fill="black" stroke="black"/>
<path id="right-arm" d="M172.471 117.199L150.155 91.8047V64.8711C153.233 64.8711 169.906 90.0091 177.858 102.578C182.167 106.888 185.81 104.374 187.092 102.578C191.402 97.6531 209.409 84.6224 217.874 78.7227L232.495 71.0273L235.573 78.7227L228.647 82.5703H237.881V91.8047C232.956 90.5734 219.413 94.8828 213.256 97.1914C207.357 101.296 193.864 111.043 187.092 117.199C180.32 123.355 174.523 119.764 172.471 117.199Z" fill="black" stroke="black"/>
<g id="body-parts">
<g id="body-chest-stroke">
<mask id="path-14-inside-1_26_97" fill="white">
<rect x="42.4203" y="65.6406" width="103.117" height="89.2656" rx="1"/>
</mask>
<rect x="42.4203" y="65.6406" width="103.117" height="89.2656" rx="1" stroke="white" stroke-width="4" mask="url(#path-14-inside-1_26_97)"/>
</g>
<rect id="body-mini-rectangle-2" x="56.2719" y="147.211" width="78.4922" height="3.07812" fill="white"/>
<rect id="body-mini-rectangle-1" x="54.7328" y="104.117" width="78.4922" height="1.53906" fill="white"/>
<rect id="body-rectangle" x="59.35" y="73.3359" width="23.0859" height="9.23438" rx="1" fill="white"/>
<circle id="body-circle" cx="79.3578" cy="88.7266" r="3.07812" fill="white"/>
</g>
<g id="body-air">
<rect id="Rectangle 18" x="108.6" y="73.3359" width="27.7031" height="1.53906" fill="white"/>
<rect id="Rectangle 25" x="108.6" y="94.8828" width="27.7031" height="1.53906" fill="white"/>
<rect id="Rectangle 24" x="108.6" y="91.8047" width="27.7031" height="1.53906" fill="white"/>
<rect id="Rectangle 23" x="108.6" y="88.7266" width="27.7031" height="1.53906" fill="white"/>
<rect id="Rectangle 22" x="108.6" y="85.6484" width="27.7031" height="1.53906" fill="white"/>
<rect id="Rectangle 21" x="108.6" y="82.5703" width="27.7031" height="1.53906" fill="white"/>
<rect id="Rectangle 20" x="108.6" y="79.4922" width="27.7031" height="1.53906" fill="white"/>
<rect id="Rectangle 19" x="108.6" y="76.4141" width="27.7031" height="1.53906" fill="white"/>
</g>
</g>
</svg>
